<mxfile host="app.diagrams.net" modified="2024-01-02T08:52:48.978Z" agent="Mozilla/5.0 (Windows NT 10.0; Win64; x64) AppleWebKit/537.36 (KHTML, like Gecko) Chrome/120.0.0.0 Safari/537.36" etag="YAuM2N0aPiQovhJzRSxl" version="22.1.16" type="device">
  <diagram id="C5RBs43oDa-KdzZeNtuy" name="Page-1">
    <mxGraphModel dx="1075" dy="464" grid="1" gridSize="10" guides="1" tooltips="1" connect="1" arrows="1" fold="1" page="1" pageScale="1" pageWidth="827" pageHeight="1169" math="0" shadow="0">
      <root>
        <mxCell id="WIyWlLk6GJQsqaUBKTNV-0" />
        <mxCell id="WIyWlLk6GJQsqaUBKTNV-1" parent="WIyWlLk6GJQsqaUBKTNV-0" />
        <mxCell id="UGMIaeZi76TZ1MvqQSXS-7" value="" style="edgeStyle=orthogonalEdgeStyle;rounded=0;orthogonalLoop=1;jettySize=auto;html=1;" edge="1" parent="WIyWlLk6GJQsqaUBKTNV-1" source="WIyWlLk6GJQsqaUBKTNV-3" target="WIyWlLk6GJQsqaUBKTNV-7">
          <mxGeometry relative="1" as="geometry" />
        </mxCell>
        <mxCell id="WIyWlLk6GJQsqaUBKTNV-3" value="&lt;p style=&quot;text-align: justify; line-height: 30%;&quot; align=&quot;center&quot; class=&quot;MsoNormal&quot;&gt;&lt;font size=&quot;1&quot;&gt;Đọc cảm biến góc nghiêng&lt;/font&gt;&lt;/p&gt;" style="rounded=1;whiteSpace=wrap;html=1;fontSize=12;glass=0;strokeWidth=1;shadow=0;" parent="WIyWlLk6GJQsqaUBKTNV-1" vertex="1">
          <mxGeometry x="190" y="110" width="125" height="50" as="geometry" />
        </mxCell>
        <mxCell id="UGMIaeZi76TZ1MvqQSXS-15" value="" style="edgeStyle=orthogonalEdgeStyle;rounded=0;orthogonalLoop=1;jettySize=auto;html=1;" edge="1" parent="WIyWlLk6GJQsqaUBKTNV-1" source="WIyWlLk6GJQsqaUBKTNV-7" target="UGMIaeZi76TZ1MvqQSXS-12">
          <mxGeometry relative="1" as="geometry" />
        </mxCell>
        <mxCell id="WIyWlLk6GJQsqaUBKTNV-7" value="Bộ lọc Kalman" style="rounded=1;whiteSpace=wrap;html=1;fontSize=12;glass=0;strokeWidth=1;shadow=0;" parent="WIyWlLk6GJQsqaUBKTNV-1" vertex="1">
          <mxGeometry x="192.5" y="200" width="120" height="40" as="geometry" />
        </mxCell>
        <mxCell id="UGMIaeZi76TZ1MvqQSXS-16" value="" style="edgeStyle=orthogonalEdgeStyle;rounded=0;orthogonalLoop=1;jettySize=auto;html=1;" edge="1" parent="WIyWlLk6GJQsqaUBKTNV-1" source="UGMIaeZi76TZ1MvqQSXS-0" target="UGMIaeZi76TZ1MvqQSXS-2">
          <mxGeometry relative="1" as="geometry" />
        </mxCell>
        <mxCell id="UGMIaeZi76TZ1MvqQSXS-17" value="" style="edgeStyle=orthogonalEdgeStyle;rounded=0;orthogonalLoop=1;jettySize=auto;html=1;" edge="1" parent="WIyWlLk6GJQsqaUBKTNV-1" source="UGMIaeZi76TZ1MvqQSXS-0" target="UGMIaeZi76TZ1MvqQSXS-2">
          <mxGeometry relative="1" as="geometry" />
        </mxCell>
        <mxCell id="UGMIaeZi76TZ1MvqQSXS-18" style="edgeStyle=orthogonalEdgeStyle;rounded=0;orthogonalLoop=1;jettySize=auto;html=1;exitX=0.5;exitY=1;exitDx=0;exitDy=0;entryX=0.5;entryY=0;entryDx=0;entryDy=0;" edge="1" parent="WIyWlLk6GJQsqaUBKTNV-1" source="UGMIaeZi76TZ1MvqQSXS-0" target="WIyWlLk6GJQsqaUBKTNV-3">
          <mxGeometry relative="1" as="geometry">
            <Array as="points">
              <mxPoint x="408" y="80" />
              <mxPoint x="252" y="80" />
            </Array>
          </mxGeometry>
        </mxCell>
        <mxCell id="UGMIaeZi76TZ1MvqQSXS-19" style="edgeStyle=orthogonalEdgeStyle;rounded=0;orthogonalLoop=1;jettySize=auto;html=1;entryX=0.5;entryY=0;entryDx=0;entryDy=0;" edge="1" parent="WIyWlLk6GJQsqaUBKTNV-1" source="UGMIaeZi76TZ1MvqQSXS-0" target="UGMIaeZi76TZ1MvqQSXS-3">
          <mxGeometry relative="1" as="geometry">
            <Array as="points">
              <mxPoint x="408" y="80" />
              <mxPoint x="578" y="80" />
            </Array>
          </mxGeometry>
        </mxCell>
        <mxCell id="UGMIaeZi76TZ1MvqQSXS-0" value="Bắt đầu" style="ellipse;whiteSpace=wrap;html=1;" vertex="1" parent="WIyWlLk6GJQsqaUBKTNV-1">
          <mxGeometry x="358.5" y="20" width="100" height="40" as="geometry" />
        </mxCell>
        <mxCell id="UGMIaeZi76TZ1MvqQSXS-9" value="" style="edgeStyle=orthogonalEdgeStyle;rounded=0;orthogonalLoop=1;jettySize=auto;html=1;" edge="1" parent="WIyWlLk6GJQsqaUBKTNV-1" source="UGMIaeZi76TZ1MvqQSXS-2" target="UGMIaeZi76TZ1MvqQSXS-8">
          <mxGeometry relative="1" as="geometry" />
        </mxCell>
        <mxCell id="UGMIaeZi76TZ1MvqQSXS-2" value="&lt;p style=&quot;text-align: justify; line-height: 30%;&quot; align=&quot;center&quot; class=&quot;MsoNormal&quot;&gt;&lt;font size=&quot;1&quot;&gt;Đọc cảm biến Encoder&lt;/font&gt;&lt;/p&gt;" style="rounded=1;whiteSpace=wrap;html=1;fontSize=12;glass=0;strokeWidth=1;shadow=0;" vertex="1" parent="WIyWlLk6GJQsqaUBKTNV-1">
          <mxGeometry x="346" y="110" width="125" height="50" as="geometry" />
        </mxCell>
        <mxCell id="UGMIaeZi76TZ1MvqQSXS-13" value="" style="edgeStyle=orthogonalEdgeStyle;rounded=0;orthogonalLoop=1;jettySize=auto;html=1;" edge="1" parent="WIyWlLk6GJQsqaUBKTNV-1" source="UGMIaeZi76TZ1MvqQSXS-3" target="UGMIaeZi76TZ1MvqQSXS-10">
          <mxGeometry relative="1" as="geometry" />
        </mxCell>
        <mxCell id="UGMIaeZi76TZ1MvqQSXS-3" value="&lt;p style=&quot;text-align: justify; line-height: 30%;&quot; align=&quot;center&quot; class=&quot;MsoNormal&quot;&gt;&lt;font size=&quot;1&quot;&gt;Đọc góc xoay trục Z&lt;/font&gt;&lt;/p&gt;" style="rounded=1;whiteSpace=wrap;html=1;fontSize=12;glass=0;strokeWidth=1;shadow=0;" vertex="1" parent="WIyWlLk6GJQsqaUBKTNV-1">
          <mxGeometry x="515" y="110" width="125" height="50" as="geometry" />
        </mxCell>
        <mxCell id="UGMIaeZi76TZ1MvqQSXS-14" value="" style="edgeStyle=orthogonalEdgeStyle;rounded=0;orthogonalLoop=1;jettySize=auto;html=1;" edge="1" parent="WIyWlLk6GJQsqaUBKTNV-1" source="UGMIaeZi76TZ1MvqQSXS-8" target="UGMIaeZi76TZ1MvqQSXS-11">
          <mxGeometry relative="1" as="geometry" />
        </mxCell>
        <mxCell id="UGMIaeZi76TZ1MvqQSXS-8" value="&lt;p style=&quot;text-align: justify; line-height: 30%;&quot; align=&quot;center&quot; class=&quot;MsoNormal&quot;&gt;&lt;font size=&quot;1&quot;&gt;Tính toán vị trí robot&lt;/font&gt;&lt;/p&gt;" style="rounded=1;whiteSpace=wrap;html=1;fontSize=12;glass=0;strokeWidth=1;shadow=0;" vertex="1" parent="WIyWlLk6GJQsqaUBKTNV-1">
          <mxGeometry x="346" y="200" width="125" height="40" as="geometry" />
        </mxCell>
        <mxCell id="UGMIaeZi76TZ1MvqQSXS-28" style="edgeStyle=orthogonalEdgeStyle;rounded=0;orthogonalLoop=1;jettySize=auto;html=1;entryX=0.5;entryY=0;entryDx=0;entryDy=0;" edge="1" parent="WIyWlLk6GJQsqaUBKTNV-1" source="UGMIaeZi76TZ1MvqQSXS-10" target="UGMIaeZi76TZ1MvqQSXS-20">
          <mxGeometry relative="1" as="geometry">
            <Array as="points">
              <mxPoint x="578" y="360" />
              <mxPoint x="409" y="360" />
            </Array>
          </mxGeometry>
        </mxCell>
        <mxCell id="UGMIaeZi76TZ1MvqQSXS-10" value="&lt;p style=&quot;text-align: justify; line-height: 30%;&quot; align=&quot;center&quot; class=&quot;MsoNormal&quot;&gt;&lt;font size=&quot;1&quot;&gt;PID góc xoay&lt;/font&gt;&lt;/p&gt;" style="rounded=1;whiteSpace=wrap;html=1;fontSize=12;glass=0;strokeWidth=1;shadow=0;" vertex="1" parent="WIyWlLk6GJQsqaUBKTNV-1">
          <mxGeometry x="515" y="200" width="125" height="40" as="geometry" />
        </mxCell>
        <mxCell id="UGMIaeZi76TZ1MvqQSXS-27" value="" style="edgeStyle=orthogonalEdgeStyle;rounded=0;orthogonalLoop=1;jettySize=auto;html=1;" edge="1" parent="WIyWlLk6GJQsqaUBKTNV-1" source="UGMIaeZi76TZ1MvqQSXS-11" target="UGMIaeZi76TZ1MvqQSXS-20">
          <mxGeometry relative="1" as="geometry" />
        </mxCell>
        <mxCell id="UGMIaeZi76TZ1MvqQSXS-11" value="&lt;p style=&quot;text-align: justify; line-height: 30%;&quot; align=&quot;center&quot; class=&quot;MsoNormal&quot;&gt;&lt;font size=&quot;1&quot;&gt;PID vị trí&lt;/font&gt;&lt;/p&gt;" style="rounded=1;whiteSpace=wrap;html=1;fontSize=12;glass=0;strokeWidth=1;shadow=0;" vertex="1" parent="WIyWlLk6GJQsqaUBKTNV-1">
          <mxGeometry x="346" y="260" width="125" height="50" as="geometry" />
        </mxCell>
        <mxCell id="UGMIaeZi76TZ1MvqQSXS-29" style="edgeStyle=orthogonalEdgeStyle;rounded=0;orthogonalLoop=1;jettySize=auto;html=1;entryX=0.5;entryY=0;entryDx=0;entryDy=0;" edge="1" parent="WIyWlLk6GJQsqaUBKTNV-1" source="UGMIaeZi76TZ1MvqQSXS-12" target="UGMIaeZi76TZ1MvqQSXS-20">
          <mxGeometry relative="1" as="geometry">
            <Array as="points">
              <mxPoint x="253" y="360" />
              <mxPoint x="409" y="360" />
            </Array>
          </mxGeometry>
        </mxCell>
        <mxCell id="UGMIaeZi76TZ1MvqQSXS-12" value="&lt;p style=&quot;text-align: justify; line-height: 30%;&quot; align=&quot;center&quot; class=&quot;MsoNormal&quot;&gt;&lt;font size=&quot;1&quot;&gt;PID góc nghiêng&lt;/font&gt;&lt;/p&gt;" style="rounded=1;whiteSpace=wrap;html=1;fontSize=12;glass=0;strokeWidth=1;shadow=0;" vertex="1" parent="WIyWlLk6GJQsqaUBKTNV-1">
          <mxGeometry x="190" y="260" width="125" height="50" as="geometry" />
        </mxCell>
        <mxCell id="UGMIaeZi76TZ1MvqQSXS-20" value="&lt;p style=&quot;text-align: justify; line-height: 30%;&quot; align=&quot;center&quot; class=&quot;MsoNormal&quot;&gt;&lt;font size=&quot;1&quot;&gt;Decoupling&lt;/font&gt;&lt;/p&gt;" style="rounded=1;whiteSpace=wrap;html=1;fontSize=12;glass=0;strokeWidth=1;shadow=0;" vertex="1" parent="WIyWlLk6GJQsqaUBKTNV-1">
          <mxGeometry x="348.5" y="410" width="120" height="50" as="geometry" />
        </mxCell>
        <mxCell id="UGMIaeZi76TZ1MvqQSXS-30" value="&lt;p style=&quot;text-align: justify; line-height: 30%;&quot; align=&quot;center&quot; class=&quot;MsoNormal&quot;&gt;&lt;br&gt;&lt;/p&gt;" style="rounded=1;whiteSpace=wrap;html=1;fontSize=12;glass=0;strokeWidth=1;shadow=0;" vertex="1" parent="WIyWlLk6GJQsqaUBKTNV-1">
          <mxGeometry x="346" y="500" width="120" height="50" as="geometry" />
        </mxCell>
      </root>
    </mxGraphModel>
  </diagram>
</mxfile>
